# xmcd
#
# Track frame offsets:
#	150
#	17621
#	53153
#	81005
#	97566
#
# Disc length: 1629 seconds
#
# Revision: 2
# Processed by: cddbd v1.4PL0 Copyright (c) Steve Scherf et al.
# Submitted via: MusicWizard 6.0.2
#
DISCID=27065b05
DTITLE=666 - Supa-Dupa-Fly
DYEAR=2001
DGENRE=
TTITLE0=Supa-Dupa-Fly (On Air Mix)
TTITLE1=Supa-Dupa-Fly (XXL Mix)
TTITLE2=Supa-Dupa-Fly (Mario Lopez Remix)
TTITLE3=Supa-Dupa-Fly (Beats `N Voices in the Mixes)
TTITLE4=Mueve ( GO! ) (XXL Mix)
EXTD=Techno  \nRip  16.03.03
EXTT0=
EXTT1=
EXTT2=
EXTT3=
EXTT4=
PLAYORDER=
